<svg width="89" height="43" viewBox="0 0 89 43" fill="none" xmlns="http://www.w3.org/2000/svg">
<rect x="1" y="1" width="48" height="41" rx="10" stroke="url(#paint0_linear)" stroke-width="2"/>
<path d="M4.24 31H11.34C11.34 31 11.44 30.88 11.34 30.7H4.54V16.64C4.54 16.64 4.52 16.6 4.4 16.6C4.3 16.6 4.24 16.64 4.24 16.64V31ZM20.6409 25.82C20.6409 25.82 20.8609 25.08 20.8609 23.86C20.8609 21.92 19.7409 20.28 17.3809 20.28C15.0609 20.28 13.3809 21.9 13.3809 25.68C13.3809 29.3 14.6209 31.2 17.2809 31.2C19.3009 31.2 20.3209 30.24 20.3209 30.24C20.3209 30.14 20.2409 30.04 20.1409 30.02C20.1409 30.02 19.0809 30.9 17.3409 30.9C14.8409 30.9 13.7809 29.34 13.6809 25.82H20.6409ZM20.5609 23.8C20.5609 24.9 20.4209 25.56 20.4209 25.52H13.6809C13.7409 22.14 15.1609 20.58 17.3809 20.58C19.6009 20.58 20.5609 22.12 20.5609 23.8ZM23.5372 25.74C23.5372 29.7 24.9972 31.2 27.4972 31.2C29.9972 31.2 31.4572 29.7 31.4572 25.74C31.4572 21.78 29.9972 20.28 27.4972 20.28C24.9972 20.28 23.5372 21.78 23.5372 25.74ZM31.1772 25.74C31.1772 29.64 29.7572 30.92 27.4972 30.92C25.2372 30.92 23.8172 29.64 23.8172 25.74C23.8172 21.84 25.2372 20.56 27.4972 20.56C29.7572 20.56 31.1772 21.84 31.1772 25.74ZM34.3869 21.64C34.3869 27.984 36.9869 31.26 41.9529 31.26C44.9949 31.26 46.6849 30.376 46.6849 30.376C46.6589 29.596 46.3989 28.842 45.8789 28.348C45.8789 28.348 44.3189 28.946 42.2649 28.946C39.2489 28.946 37.1429 27.464 37.1429 21.666C37.1429 15.868 39.2489 14.282 42.2649 14.282C44.1109 14.282 45.6189 14.88 45.6189 14.88C46.0869 14.36 46.4509 13.762 46.3989 12.904C46.3989 12.904 44.8389 12.02 41.9529 12.02C36.9609 12.02 34.3869 15.348 34.3869 21.64Z" fill="white"/>
<path d="M4.24 31H3.58479V31.6552H4.24V31ZM11.34 31V31.6552H11.6469L11.8433 31.4195L11.34 31ZM11.34 30.7L11.9128 30.3818L11.7255 30.0448H11.34V30.7ZM4.54 30.7H3.88479V31.3552H4.54V30.7ZM4.54 16.64H5.19521V16.4853L5.12603 16.347L4.54 16.64ZM4.24 16.64L3.87656 16.0948L3.58479 16.2893V16.64H4.24ZM4.24 31.6552H11.34V30.3448H4.24V31.6552ZM11.34 31C11.8433 31.4195 11.8436 31.4192 11.8438 31.4188C11.8439 31.4187 11.8442 31.4184 11.8444 31.4182C11.8447 31.4178 11.845 31.4174 11.8454 31.417C11.8461 31.4162 11.8468 31.4153 11.8475 31.4145C11.8489 31.4127 11.8503 31.411 11.8518 31.4091C11.8547 31.4055 11.8578 31.4016 11.8609 31.3974C11.8673 31.3892 11.874 31.38 11.8811 31.3698C11.8953 31.3496 11.911 31.3252 11.9268 31.2966C11.9583 31.24 11.9924 31.1636 12.0149 31.0693C12.0633 30.866 12.0464 30.6223 11.9128 30.3818L10.7672 31.0182C10.7336 30.9577 10.7167 30.864 10.7401 30.7657C10.7501 30.7239 10.7655 30.6887 10.7813 30.6602C10.7894 30.6458 10.798 30.6321 10.8071 30.6191C10.8116 30.6126 10.8163 30.6062 10.8213 30.5998C10.8237 30.5966 10.8262 30.5934 10.8288 30.5902C10.8301 30.5886 10.8314 30.587 10.8327 30.5854C10.8333 30.5846 10.834 30.5838 10.8347 30.583C10.835 30.5826 10.8353 30.5822 10.8357 30.5818C10.8358 30.5816 10.8361 30.5812 10.8362 30.5811C10.8364 30.5808 10.8367 30.5805 11.34 31ZM11.34 30.0448H4.54V31.3552H11.34V30.0448ZM5.19521 30.7V16.64H3.88479V30.7H5.19521ZM4.54 16.64C5.12603 16.347 5.12569 16.3463 5.12534 16.3456C5.12523 16.3454 5.12488 16.3447 5.12465 16.3442C5.12419 16.3433 5.12372 16.3424 5.12325 16.3415C5.12231 16.3396 5.12135 16.3378 5.12039 16.3359C5.11845 16.3323 5.11647 16.3285 5.11443 16.3248C5.11036 16.3174 5.10608 16.3099 5.10158 16.3024C5.09258 16.2874 5.08276 16.2724 5.07207 16.2574C5.0506 16.2274 5.02604 16.1982 4.9983 16.1704C4.94211 16.1143 4.87758 16.0687 4.80801 16.034C4.67142 15.9657 4.52857 15.9448 4.4 15.9448V17.2552C4.39143 17.2552 4.31858 17.2543 4.22199 17.206C4.17242 17.1813 4.12039 17.1457 4.0717 17.0971C4.04771 17.0731 4.02565 17.047 4.00574 17.0191C3.99583 17.0052 3.98656 16.9911 3.97791 16.9767C3.97359 16.9695 3.96944 16.9622 3.96545 16.9549C3.96345 16.9513 3.9615 16.9476 3.95958 16.944C3.95863 16.9422 3.95768 16.9403 3.95674 16.9385C3.95628 16.9376 3.95581 16.9367 3.95535 16.9358C3.95512 16.9353 3.95477 16.9346 3.95465 16.9344C3.95431 16.9337 3.95397 16.933 4.54 16.64ZM4.4 15.9448C4.26184 15.9448 4.14587 15.9725 4.05859 16.0042C4.01499 16.0201 3.97794 16.0372 3.94786 16.0528C3.93278 16.0607 3.91929 16.0683 3.90744 16.0754C3.90151 16.0789 3.89597 16.0823 3.89082 16.0856C3.88825 16.0872 3.88578 16.0888 3.8834 16.0903C3.88221 16.0911 3.88105 16.0919 3.87991 16.0926C3.87934 16.093 3.87877 16.0934 3.87822 16.0937C3.87794 16.0939 3.87766 16.0941 3.87738 16.0943C3.87724 16.0944 3.87704 16.0945 3.87697 16.0946C3.87676 16.0947 3.87656 16.0948 4.24 16.64C4.60344 17.1852 4.60324 17.1853 4.60303 17.1854C4.60296 17.1855 4.60276 17.1856 4.60262 17.1857C4.60235 17.1859 4.60208 17.1861 4.60181 17.1863C4.60126 17.1866 4.60072 17.187 4.60018 17.1873C4.5991 17.188 4.59802 17.1887 4.59695 17.1894C4.59481 17.1908 4.59268 17.1922 4.59057 17.1935C4.58636 17.1962 4.5822 17.1987 4.57811 17.2012C4.56993 17.206 4.56191 17.2105 4.55401 17.2146C4.53831 17.2228 4.52251 17.2299 4.50641 17.2358C4.47413 17.2475 4.43816 17.2552 4.4 17.2552V15.9448ZM3.58479 16.64V31H4.89521V16.64H3.58479ZM20.6409 25.82V26.4752H21.1297L21.269 26.0067L20.6409 25.82ZM20.3209 30.24L20.77 30.7171L20.9761 30.5231V30.24H20.3209ZM20.1409 30.02L20.2694 29.3775L19.9629 29.3162L19.7224 29.5159L20.1409 30.02ZM13.6809 25.82V25.1648H13.0069L13.026 25.8386L13.6809 25.82ZM20.4209 25.52H21.0761V24.8648H20.4209V25.52ZM13.6809 25.52L13.0258 25.5084L13.014 26.1752H13.6809V25.52ZM20.6409 25.82C21.269 26.0067 21.269 26.0066 21.2691 26.0064C21.2691 26.0064 21.2691 26.0062 21.2692 26.0061C21.2692 26.0059 21.2693 26.0057 21.2693 26.0055C21.2695 26.005 21.2696 26.0045 21.2698 26.004C21.2701 26.0029 21.2705 26.0016 21.2709 26.0001C21.2718 25.9972 21.2728 25.9935 21.2741 25.9891C21.2765 25.9803 21.2797 25.9687 21.2836 25.9542C21.2913 25.9253 21.3015 25.8851 21.3134 25.8341C21.3372 25.7322 21.3676 25.5871 21.3976 25.4029C21.4576 25.0347 21.5161 24.5092 21.5161 23.86H20.2057C20.2057 24.4308 20.1543 24.8853 20.1043 25.1921C20.0793 25.3454 20.0547 25.4616 20.0372 25.5365C20.0285 25.574 20.0215 25.6011 20.0172 25.6174C20.015 25.6256 20.0135 25.631 20.0128 25.6337C20.0124 25.635 20.0122 25.6356 20.0122 25.6356C20.0122 25.6356 20.0123 25.6353 20.0124 25.635C20.0125 25.6348 20.0125 25.6345 20.0126 25.6343C20.0126 25.6341 20.0127 25.634 20.0127 25.6338C20.0128 25.6337 20.0128 25.6336 20.0128 25.6336C20.0129 25.6334 20.0129 25.6333 20.6409 25.82ZM21.5161 23.86C21.5161 22.7699 21.2014 21.7081 20.4975 20.9093C19.7824 20.0979 18.724 19.6248 17.3809 19.6248V20.9352C18.3979 20.9352 19.0794 21.2821 19.5144 21.7757C19.9605 22.2819 20.2057 23.0101 20.2057 23.86H21.5161ZM17.3809 19.6248C16.0573 19.6248 14.856 20.0944 14.0016 21.1504C13.1634 22.1863 12.7257 23.7045 12.7257 25.68H14.0361C14.0361 23.8755 14.4385 22.6937 15.0203 21.9746C15.5859 21.2756 16.3846 20.9352 17.3809 20.9352V19.6248ZM12.7257 25.68C12.7257 27.544 13.0412 29.0827 13.7948 30.1706C14.5793 31.303 15.7728 31.8552 17.2809 31.8552V30.5448C16.1291 30.5448 15.3726 30.147 14.872 29.4244C14.3407 28.6573 14.0361 27.436 14.0361 25.68H12.7257ZM17.2809 31.8552C18.3982 31.8552 19.2533 31.5891 19.8385 31.3123C20.1302 31.1744 20.3536 31.0345 20.5085 30.9248C20.5859 30.87 20.6465 30.8227 20.69 30.7868C20.7118 30.7688 20.7293 30.7537 20.7426 30.7419C20.7493 30.7361 20.7549 30.731 20.7595 30.7269C20.7618 30.7248 20.7638 30.7229 20.7655 30.7213C20.7664 30.7205 20.7672 30.7197 20.768 30.719C20.7683 30.7187 20.7687 30.7184 20.769 30.718C20.7692 30.7179 20.7694 30.7176 20.7695 30.7176C20.7698 30.7173 20.77 30.7171 20.3209 30.24C19.8719 29.7629 19.8721 29.7627 19.8723 29.7625C19.8724 29.7624 19.8726 29.7622 19.8728 29.7621C19.873 29.7618 19.8733 29.7615 19.8735 29.7613C19.874 29.7609 19.8745 29.7604 19.8749 29.7601C19.8756 29.7594 19.8761 29.7589 19.8764 29.7587C19.877 29.7581 19.8766 29.7585 19.8753 29.7596C19.8727 29.7619 19.8664 29.7674 19.8563 29.7757C19.8362 29.7923 19.8012 29.82 19.7515 29.8552C19.6521 29.9255 19.4942 30.0256 19.2783 30.1277C18.8485 30.3309 18.1837 30.5448 17.2809 30.5448V31.8552ZM20.9761 30.24C20.9761 29.8326 20.6805 29.4597 20.2694 29.3775L20.0124 30.6625C19.8912 30.6382 19.8086 30.5731 19.7599 30.5132C19.7116 30.4537 19.6657 30.3614 19.6657 30.24H20.9761ZM20.1409 30.02C19.7224 29.5159 19.7226 29.5157 19.7228 29.5156C19.7229 29.5155 19.7231 29.5154 19.7232 29.5153C19.7234 29.5151 19.7236 29.5149 19.7238 29.5147C19.7242 29.5144 19.7246 29.5141 19.7249 29.5139C19.7254 29.5134 19.7257 29.5131 19.7258 29.5131C19.726 29.513 19.7251 29.5136 19.7234 29.515C19.7198 29.5178 19.7124 29.5236 19.7012 29.5319C19.6789 29.5485 19.6417 29.5752 19.5903 29.6086C19.4875 29.6756 19.3293 29.7691 19.1216 29.8638C18.7062 30.0533 18.0989 30.2448 17.3409 30.2448V31.5552C18.3229 31.5552 19.1157 31.3067 19.6653 31.0562C19.9401 30.9309 20.1556 30.8044 20.3059 30.7064C20.3812 30.6573 20.4404 30.6152 20.4828 30.5837C20.504 30.568 20.5211 30.5548 20.5339 30.5447C20.5403 30.5397 20.5456 30.5354 20.5499 30.532C20.552 30.5302 20.5539 30.5287 20.5555 30.5274C20.5563 30.5268 20.557 30.5262 20.5577 30.5256C20.558 30.5253 20.5583 30.5251 20.5586 30.5248C20.5588 30.5247 20.559 30.5245 20.559 30.5245C20.5593 30.5243 20.5595 30.5241 20.1409 30.02ZM17.3409 30.2448C16.2429 30.2448 15.5809 29.9137 15.145 29.3004C14.6705 28.6329 14.3849 27.5256 14.3359 25.8014L13.026 25.8386C13.077 27.6344 13.3714 29.0671 14.0769 30.0596C14.8209 31.1063 15.9389 31.5552 17.3409 31.5552V30.2448ZM13.6809 26.4752H20.6409V25.1648H13.6809V26.4752ZM19.9057 23.8C19.9057 24.3226 19.8725 24.7369 19.8402 25.0109C19.8241 25.1482 19.8084 25.2483 19.7978 25.3075C19.7952 25.3222 19.793 25.3336 19.7914 25.3419C19.7896 25.3507 19.7888 25.3542 19.789 25.3535C19.789 25.3532 19.7899 25.3496 19.7914 25.3438C19.7922 25.3408 19.7967 25.3238 19.8047 25.3013C19.8078 25.2923 19.8181 25.2635 19.8356 25.2283C19.8439 25.2118 19.8628 25.1753 19.8937 25.1333C19.9094 25.112 19.9982 24.9875 20.1715 24.916C20.2763 24.8728 20.4222 24.8455 20.5843 24.8871C20.7425 24.9278 20.8505 25.0173 20.9144 25.0904C21.0233 25.2149 21.0527 25.3452 21.0586 25.3704C21.0772 25.4489 21.0761 25.5131 21.0761 25.52H19.7657C19.7657 25.5282 19.7647 25.5932 19.7835 25.6723C19.7895 25.6978 19.8189 25.8283 19.9279 25.9529C19.9919 26.0261 20.0999 26.1156 20.2582 26.1563C20.4204 26.198 20.5663 26.1707 20.6712 26.1274C20.8446 26.0559 20.9336 25.9312 20.9494 25.9097C20.9805 25.8675 20.9996 25.8307 21.008 25.8137C21.026 25.7778 21.0367 25.7479 21.0404 25.7374C21.0547 25.6968 21.0632 25.6594 21.0649 25.6519C21.0725 25.6198 21.0802 25.5805 21.0878 25.5381C21.1035 25.4504 21.1228 25.3243 21.1417 25.1641C21.1794 24.8431 21.2161 24.3774 21.2161 23.8H19.9057ZM20.4209 24.8648H13.6809V26.1752H20.4209V24.8648ZM14.336 25.5316C14.3647 23.9178 14.7182 22.8448 15.2356 22.1879C15.7327 21.5569 16.4394 21.2352 17.3809 21.2352V19.9248C16.1025 19.9248 14.9892 20.3831 14.2062 21.3771C13.4437 22.3452 13.0572 23.7422 13.0258 25.5084L14.336 25.5316ZM17.3809 21.2352C18.3272 21.2352 18.9321 21.5565 19.3091 21.99C19.6989 22.4383 19.9057 23.0773 19.9057 23.8H21.2161C21.2161 22.8427 20.9429 21.8717 20.2978 21.13C19.6398 20.3735 18.6546 19.9248 17.3809 19.9248V21.2352ZM22.882 25.74C22.882 27.7792 23.254 29.319 24.0627 30.3576C24.8988 31.4312 26.1087 31.8552 27.4972 31.8552V30.5448C26.3857 30.5448 25.6156 30.2188 25.0966 29.5524C24.5504 28.851 24.1924 27.6608 24.1924 25.74H22.882ZM27.4972 31.8552C28.8857 31.8552 30.0956 31.4312 30.9316 30.3576C31.7404 29.319 32.1124 27.7792 32.1124 25.74H30.802C30.802 27.6608 30.444 28.851 29.8977 29.5524C29.3788 30.2188 28.6087 30.5448 27.4972 30.5448V31.8552ZM32.1124 25.74C32.1124 23.7008 31.7404 22.161 30.9316 21.1224C30.0956 20.0488 28.8857 19.6248 27.4972 19.6248V20.9352C28.6087 20.9352 29.3788 21.2612 29.8977 21.9276C30.444 22.629 30.802 23.8192 30.802 25.74H32.1124ZM27.4972 19.6248C26.1087 19.6248 24.8988 20.0488 24.0627 21.1224C23.254 22.161 22.882 23.7008 22.882 25.74H24.1924C24.1924 23.8192 24.5504 22.629 25.0966 21.9276C25.6156 21.2612 26.3857 20.9352 27.4972 20.9352V19.6248ZM30.522 25.74C30.522 27.6334 30.173 28.75 29.6704 29.3865C29.196 29.9874 28.4991 30.2648 27.4972 30.2648V31.5752C28.7553 31.5752 29.8983 31.2126 30.6989 30.1985C31.4714 29.22 31.8324 27.7466 31.8324 25.74H30.522ZM27.4972 30.2648C26.4953 30.2648 25.7983 29.9874 25.3239 29.3865C24.8214 28.75 24.4724 27.6334 24.4724 25.74H23.162C23.162 27.7466 23.523 29.22 24.2954 30.1985C25.096 31.2126 26.2391 31.5752 27.4972 31.5752V30.2648ZM24.4724 25.74C24.4724 23.8466 24.8214 22.73 25.3239 22.0935C25.7983 21.4926 26.4953 21.2152 27.4972 21.2152V19.9048C26.2391 19.9048 25.096 20.2674 24.2954 21.2815C23.523 22.26 23.162 23.7334 23.162 25.74H24.4724ZM27.4972 21.2152C28.4991 21.2152 29.196 21.4926 29.6704 22.0935C30.173 22.73 30.522 23.8466 30.522 25.74H31.8324C31.8324 23.7334 31.4714 22.26 30.6989 21.2815C29.8983 20.2674 28.7553 19.9048 27.4972 19.9048V21.2152ZM46.6849 30.376L46.9886 30.9566L47.3535 30.7657L47.3398 30.3542L46.6849 30.376ZM45.8789 28.348L46.3302 27.873L46.0304 27.5882L45.6444 27.7362L45.8789 28.348ZM45.6189 14.88L45.3774 15.4891L45.801 15.6571L46.1059 15.3183L45.6189 14.88ZM46.3989 12.904L47.0529 12.8644L47.0314 12.5093L46.7219 12.334L46.3989 12.904ZM33.7317 21.64C33.7317 24.8858 34.3944 27.4602 35.7931 29.2346C37.2136 31.0366 39.3144 31.9152 41.9529 31.9152V30.6048C39.6254 30.6048 37.9432 29.8454 36.8222 28.4234C35.6795 26.9738 35.0421 24.7382 35.0421 21.64H33.7317ZM41.9529 31.9152C43.5379 31.9152 44.7795 31.6848 45.6336 31.4497C46.0605 31.3322 46.3904 31.2135 46.6179 31.122C46.7317 31.0762 46.8199 31.0372 46.8819 31.0084C46.9129 30.9941 46.9373 30.9823 46.9551 30.9735C46.964 30.9691 46.9713 30.9655 46.9769 30.9626C46.9797 30.9612 46.982 30.96 46.984 30.959C46.985 30.9585 46.9858 30.958 46.9866 30.9576C46.987 30.9574 46.9873 30.9572 46.9877 30.9571C46.9878 30.957 46.9881 30.9569 46.9882 30.9568C46.9884 30.9567 46.9886 30.9566 46.6849 30.376C46.3812 29.7954 46.3814 29.7953 46.3816 29.7952C46.3817 29.7952 46.3819 29.7951 46.382 29.795C46.3822 29.7949 46.3824 29.7948 46.3826 29.7947C46.3829 29.7945 46.3832 29.7944 46.3834 29.7943C46.3837 29.7942 46.3836 29.7942 46.3831 29.7945C46.3821 29.795 46.3795 29.7963 46.3752 29.7984C46.3668 29.8025 46.352 29.8097 46.3308 29.8195C46.2885 29.8391 46.2209 29.8692 46.1287 29.9063C45.9443 29.9805 45.6616 30.0828 45.2857 30.1863C44.5343 30.3932 43.4099 30.6048 41.9529 30.6048V31.9152ZM47.3398 30.3542C47.3099 29.4589 47.0107 28.5195 46.3302 27.873L45.4276 28.823C45.7871 29.1645 46.0079 29.7331 46.0301 30.3978L47.3398 30.3542ZM45.8789 28.348C45.6444 27.7362 45.6445 27.7362 45.6446 27.7361C45.6447 27.7361 45.6448 27.7361 45.6448 27.736C45.645 27.736 45.6451 27.7359 45.6452 27.7359C45.6453 27.7358 45.6454 27.7358 45.6454 27.7358C45.6453 27.7358 45.6449 27.736 45.6441 27.7363C45.6425 27.7369 45.6395 27.738 45.635 27.7397C45.6261 27.743 45.6114 27.7483 45.5912 27.7553C45.5508 27.7695 45.4886 27.7906 45.4066 27.8164C45.2424 27.868 44.9996 27.9381 44.6946 28.0086C44.083 28.15 43.2303 28.2908 42.2649 28.2908V29.6012C43.3536 29.6012 44.3078 29.443 44.9897 29.2854C45.3315 29.2064 45.6071 29.127 45.7995 29.0665C45.8959 29.0362 45.9715 29.0106 46.0245 28.992C46.051 28.9828 46.0718 28.9752 46.0867 28.9698C46.0942 28.967 46.1002 28.9648 46.1046 28.9631C46.1068 28.9623 46.1087 28.9616 46.1102 28.961C46.1109 28.9608 46.1115 28.9605 46.1121 28.9603C46.1124 28.9602 46.1126 28.9601 46.1128 28.96C46.1129 28.96 46.1131 28.9599 46.1131 28.9599C46.1133 28.9599 46.1134 28.9598 45.8789 28.348ZM42.2649 28.2908C40.8611 28.2908 39.809 27.9491 39.0783 27.0633C38.3198 26.1438 37.7981 24.5114 37.7981 21.666H36.4877C36.4877 24.6186 37.019 26.6262 38.0675 27.8972C39.1438 29.2019 40.6527 29.6012 42.2649 29.6012V28.2908ZM37.7981 21.666C37.7981 18.8219 38.3193 17.1587 39.0831 16.2109C39.8183 15.2984 40.8726 14.9372 42.2649 14.9372V13.6268C40.6412 13.6268 39.1345 14.0586 38.0627 15.3886C37.0195 16.6833 36.4877 18.7121 36.4877 21.666H37.7981ZM42.2649 14.9372C43.1203 14.9372 43.9043 15.0762 44.4776 15.2172C44.7631 15.2874 44.993 15.3573 45.1495 15.4089C45.2276 15.4346 45.2872 15.4557 45.326 15.4699C45.3454 15.4769 45.3596 15.4823 45.3682 15.4856C45.3726 15.4872 45.3755 15.4883 45.3771 15.4889C45.3778 15.4892 45.3782 15.4894 45.3783 15.4894C45.3783 15.4894 45.3783 15.4894 45.3781 15.4894C45.378 15.4893 45.3779 15.4893 45.3778 15.4892C45.3778 15.4892 45.3776 15.4892 45.3776 15.4892C45.3775 15.4891 45.3774 15.4891 45.6189 14.88C45.8604 14.2709 45.8603 14.2709 45.8602 14.2708C45.8601 14.2708 45.86 14.2707 45.8599 14.2707C45.8596 14.2706 45.8594 14.2705 45.8592 14.2704C45.8586 14.2702 45.858 14.27 45.8573 14.2697C45.8559 14.2692 45.8541 14.2685 45.852 14.2676C45.8477 14.266 45.842 14.2637 45.8348 14.261C45.8205 14.2555 45.8004 14.248 45.775 14.2387C45.7241 14.2202 45.6515 14.1946 45.5594 14.1642C45.3755 14.1037 45.113 14.0241 44.7907 13.9448C44.1485 13.7868 43.2556 13.6268 42.2649 13.6268V14.9372ZM46.1059 15.3183C46.6343 14.7312 47.1198 13.9675 47.0529 12.8644L45.7449 12.9436C45.782 13.5565 45.5395 13.9888 45.1319 14.4417L46.1059 15.3183ZM46.3989 12.904C46.7219 12.334 46.7217 12.3338 46.7215 12.3337C46.7214 12.3336 46.7211 12.3335 46.721 12.3334C46.7206 12.3332 46.7203 12.333 46.7199 12.3328C46.7191 12.3324 46.7182 12.3319 46.7172 12.3313C46.7153 12.3302 46.7129 12.3289 46.7102 12.3274C46.7048 12.3244 46.6978 12.3206 46.6892 12.316C46.6721 12.3069 46.6489 12.2948 46.6195 12.2801C46.5608 12.2507 46.4776 12.211 46.3705 12.1646C46.1562 12.0718 45.8458 11.952 45.4432 11.8335C44.6374 11.5963 43.4636 11.3648 41.9529 11.3648V12.6752C43.3282 12.6752 44.3774 12.8857 45.0731 13.0905C45.4212 13.193 45.6813 13.2942 45.8497 13.3671C45.9338 13.4036 45.9951 13.433 46.033 13.4519C46.0519 13.4614 46.065 13.4683 46.0722 13.4721C46.0757 13.474 46.0779 13.4752 46.0785 13.4755C46.0788 13.4757 46.0787 13.4756 46.0783 13.4754C46.0781 13.4753 46.0778 13.4751 46.0774 13.4749C46.0772 13.4748 46.0769 13.4746 46.0767 13.4745C46.0766 13.4744 46.0764 13.4743 46.0763 13.4743C46.0761 13.4742 46.0759 13.474 46.3989 12.904ZM41.9529 11.3648C39.299 11.3648 37.1983 12.2581 35.7821 14.0665C34.3878 15.8469 33.7317 18.4204 33.7317 21.64H35.0421C35.0421 18.5676 35.673 16.3311 36.8138 14.8745C37.9325 13.4459 39.6148 12.6752 41.9529 12.6752V11.3648Z" fill="white"/>
<path d="M52.314 13.28V31.818C52.314 31.818 52.704 32 53.666 32C54.524 32 54.966 31.818 54.966 31.818V24.226H58.034L62.35 31.818C62.35 31.818 62.896 32 63.858 32C64.872 32 65.418 31.818 65.418 31.818L60.894 23.966C63.182 23.29 64.56 21.34 64.56 18.766C64.56 15.49 62.376 13.28 58.97 13.28H52.314ZM54.966 15.49H58.632C60.66 15.49 61.804 16.686 61.804 18.766C61.804 20.82 60.66 22.016 58.632 22.016H54.966V15.49ZM83.232 13.462C81.854 16.218 80.45 18.948 78.994 21.678C78.5 22.666 78.214 23.446 78.032 23.992H77.928C77.642 23.03 76.888 21.47 76.134 19.962L72.702 13.462C72.702 13.462 71.922 13.28 71.116 13.28C70.154 13.28 69.53 13.462 69.53 13.462V31.818C69.53 31.818 69.972 32 70.7 32C71.532 32 71.948 31.818 71.948 31.818V23.108C71.948 20.56 71.948 17.856 71.688 16.556H71.792C72.104 17.726 73.196 19.962 74.158 21.886L77.148 27.502C77.148 27.502 77.382 27.632 77.876 27.632C78.344 27.632 78.682 27.502 78.682 27.502L81.724 21.782C82.66 19.858 83.726 17.726 84.038 16.556H84.168C83.96 18.116 84.012 20.95 84.012 23.498V31.818C84.012 31.818 84.506 32 85.338 32C86.196 32 86.638 31.818 86.638 31.818V13.462C86.638 13.462 85.962 13.28 84.922 13.28C84.376 13.28 83.726 13.358 83.232 13.462Z" fill="white"/>
<defs>
<linearGradient id="paint0_linear" x1="49.455" y1="6.56944" x2="4.33948" y2="44.2417" gradientUnits="userSpaceOnUse">
<stop offset="0.0001" stop-color="#6E3888"/>
<stop offset="0.295018" stop-color="#71375F"/>
<stop offset="0.593882" stop-color="#CF0070"/>
<stop offset="0.971642" stop-color="#FC740F" stop-opacity="0.75"/>
<stop offset="1" stop-color="#FBFF2B" stop-opacity="0.94"/>
</linearGradient>
</defs>
</svg>
